<svg width="574" height="716" viewBox="0 0 574 716" fill="none" xmlns="http://www.w3.org/2000/svg">
<path d="M220.31 322.494C220.31 322.494 208.427 273.775 211.276 235.911C214.125 198.048 198.144 177.899 193.001 170.986C187.858 164.073 205.035 148.472 200.841 128.863C196.647 109.253 201.644 64.3775 208.999 68.9326C216.353 73.4876 219.491 97.8853 234.745 105.824C249.999 113.763 264.078 117.843 266.144 145.938C268.21 174.034 289.9 201.431 299.643 216.548C309.385 231.664 340.117 305.148 306.183 325.978C272.249 346.808 230.241 351.454 220.31 322.494Z" fill="#90B578"/>
<path d="M220.31 322.494C220.31 322.494 208.427 273.775 211.276 235.911C214.125 198.048 198.144 177.899 193.001 170.986C187.858 164.073 205.035 148.472 200.841 128.863C196.647 109.253 201.644 64.3775 208.999 68.9326C216.353 73.4876 219.491 97.8853 234.745 105.824C249.999 113.763 264.078 117.843 266.144 145.938C268.21 174.034 289.9 201.431 299.643 216.548C309.385 231.664 340.117 305.148 306.183 325.978C272.249 346.808 230.241 351.454 220.31 322.494Z" stroke="#160C02" stroke-width="0.5" stroke-miterlimit="10"/>
<path d="M209 68.9326C209 68.9326 235.438 195.516 252.078 213.076C268.718 230.635 283.537 337.005 283.537 337.005" stroke="#160C02" stroke-width="0.5" stroke-miterlimit="10"/>
<path d="M232.644 164.966C232.644 164.966 241.875 150.54 245.438 142.163C249.003 133.786 249.11 113.454 249.11 113.454" stroke="#160C02" stroke-width="0.5" stroke-miterlimit="10"/>
<path d="M192.318 165.516C192.318 165.516 209.021 182.351 215.673 191.825C222.326 201.299 246.277 203.63 246.277 203.63" stroke="#160C02" stroke-width="0.5" stroke-miterlimit="10"/>
<path d="M291.828 204.931C291.828 204.931 287.762 231.118 282.25 242.645C276.737 254.172 270.807 266.355 270.807 266.355" stroke="#160C02" stroke-width="0.5" stroke-miterlimit="10"/>
<path d="M211.451 264.877C211.451 264.877 225.06 291.314 230.134 295.409C235.207 299.504 277.292 298.639 277.292 298.639" stroke="#160C02" stroke-width="0.5" stroke-miterlimit="10"/>
<path d="M164.326 203.059C164.326 203.059 154.799 197.996 148.345 199.312C142.717 200.459 138.525 205.238 133.856 205.316C133.703 205.316 133.554 205.362 133.427 205.448C133.301 205.534 133.203 205.656 133.147 205.798C133.091 205.94 133.079 206.096 133.112 206.245C133.146 206.394 133.223 206.53 133.335 206.634C135.916 209.189 141.14 213.94 144.85 214.553C149.958 215.397 168.62 219.481 164.326 203.059Z" fill="#389B73"/>
<path d="M348.571 458.662C348.571 458.662 234.663 347.608 208.508 285.561C182.352 223.513 158.226 186.599 132.87 175.819" stroke="#160C02" stroke-width="0.5" stroke-linecap="round" stroke-linejoin="round"/>
<path d="M133.335 206.634C137.525 208.131 141.943 208.884 146.392 208.859C150.84 208.825 164.678 204.108 164.678 204.108" stroke="#160C02" stroke-width="0.5" stroke-linecap="round" stroke-linejoin="round"/>
<path d="M184.204 236.275C184.204 236.275 173.26 230.46 165.847 231.97C159.383 233.288 154.568 238.778 149.204 238.867C149.028 238.867 148.857 238.92 148.712 239.019C148.566 239.118 148.454 239.258 148.39 239.421C148.325 239.584 148.311 239.763 148.35 239.935C148.388 240.106 148.477 240.262 148.606 240.382C151.571 243.316 157.57 248.773 161.832 249.477C167.7 250.447 189.136 255.138 184.204 236.275Z" fill="#389B73"/>
<path d="M148.606 240.382C153.418 242.1 158.494 242.965 163.604 242.938C168.713 242.898 184.607 237.48 184.607 237.48" stroke="#160C02" stroke-width="0.5" stroke-linecap="round" stroke-linejoin="round"/>
<path d="M204.092 275.233C204.092 275.233 193.149 269.418 185.736 270.929C179.271 272.246 174.456 277.736 169.093 277.826C168.917 277.825 168.745 277.878 168.6 277.977C168.455 278.076 168.343 278.216 168.278 278.379C168.214 278.542 168.2 278.721 168.238 278.893C168.277 279.064 168.366 279.22 168.494 279.34C171.459 282.274 177.459 287.731 181.721 288.435C187.589 289.405 209.024 294.096 204.092 275.233Z" fill="#389B73"/>
<path d="M168.494 279.34C173.307 281.058 178.382 281.923 183.492 281.896C188.601 281.856 204.496 276.438 204.496 276.438" stroke="#160C02" stroke-width="0.5" stroke-linecap="round" stroke-linejoin="round"/>
<path d="M223.889 314.314C223.889 314.314 212.946 308.498 205.533 310.009C199.068 311.327 194.253 316.816 188.889 316.906C188.714 316.906 188.542 316.958 188.397 317.057C188.252 317.156 188.14 317.296 188.075 317.459C188.011 317.623 187.997 317.802 188.035 317.973C188.074 318.144 188.163 318.3 188.291 318.42C191.256 321.355 197.256 326.811 201.518 327.515C207.385 328.485 228.821 333.176 223.889 314.314Z" fill="#389B73"/>
<path d="M188.291 318.42C193.103 320.139 198.179 321.004 203.289 320.976C208.398 320.937 224.293 315.519 224.293 315.519" stroke="#160C02" stroke-width="0.5" stroke-linecap="round" stroke-linejoin="round"/>
<path d="M247.305 346.312C247.305 346.312 235.851 341.582 228.652 343.816C222.373 345.764 218.159 351.714 212.847 352.329C212.673 352.347 212.508 352.418 212.374 352.531C212.239 352.645 212.143 352.796 212.095 352.965C212.048 353.134 212.053 353.314 212.109 353.48C212.165 353.647 212.269 353.793 212.409 353.899C215.652 356.536 222.164 361.393 226.465 361.678C232.386 362.07 254.133 364.651 247.305 346.312Z" fill="#389B73"/>
<path d="M212.408 353.899C217.354 355.141 222.478 355.507 227.55 354.979C232.615 354.439 247.828 347.475 247.828 347.475" stroke="#160C02" stroke-width="0.5" stroke-linecap="round" stroke-linejoin="round"/>
<path d="M271.046 375.934C271.046 375.934 259.13 372.574 252.285 375.65C246.315 378.332 242.883 384.756 237.704 385.996C237.533 386.037 237.378 386.128 237.259 386.257C237.141 386.387 237.063 386.549 237.038 386.723C237.012 386.896 237.039 387.074 237.115 387.232C237.191 387.391 237.313 387.523 237.464 387.611C240.998 389.856 248.041 393.925 252.33 393.701C258.236 393.392 280.069 393.395 271.046 375.934Z" fill="#389B73"/>
<path d="M237.463 387.611C242.503 388.265 247.619 388.024 252.575 386.9C257.519 385.764 271.707 377.03 271.707 377.03" stroke="#160C02" stroke-width="0.5" stroke-linecap="round" stroke-linejoin="round"/>
<path d="M295.96 403.615C295.96 403.615 283.858 401.069 277.262 404.609C271.51 407.696 268.55 414.351 263.483 415.943C263.315 415.997 263.168 416.099 263.059 416.237C262.95 416.375 262.885 416.542 262.871 416.717C262.858 416.893 262.898 417.068 262.985 417.22C263.072 417.373 263.202 417.496 263.36 417.574C267.038 419.577 274.34 423.165 278.594 422.649C284.452 421.938 306.189 420.454 295.96 403.615Z" fill="#389B73"/>
<path d="M263.359 417.574C268.421 417.885 273.498 417.295 278.354 415.834C283.194 414.362 296.697 404.666 296.697 404.666" stroke="#160C02" stroke-width="0.5" stroke-linecap="round" stroke-linejoin="round"/>
<path d="M283.899 389.962C283.899 389.962 281.637 378.077 285.449 371.74C288.773 366.214 295.67 363.515 297.444 358.614C297.51 358.45 297.622 358.309 297.766 358.207C297.91 358.105 298.081 358.047 298.257 358.039C298.433 358.031 298.608 358.074 298.761 358.163C298.913 358.252 299.037 358.383 299.117 358.54C301.063 362.188 304.528 369.417 303.879 373.554C302.984 379.251 300.846 400.425 283.899 389.962Z" fill="#389B73"/>
<path d="M283.899 389.962C283.899 389.962 281.637 378.077 285.449 371.74C288.773 366.214 295.67 363.515 297.444 358.614C297.51 358.45 297.622 358.309 297.766 358.207C297.91 358.105 298.081 358.047 298.257 358.039C298.433 358.031 298.608 358.074 298.761 358.163C298.913 358.252 299.037 358.383 299.117 358.54C301.063 362.188 304.528 369.417 303.879 373.554C302.984 379.251 300.846 400.425 283.899 389.962Z" stroke="#160C02" stroke-width="0.5" stroke-linecap="round" stroke-linejoin="round"/>
<path d="M299.119 358.54C299.292 363.497 298.543 368.443 296.91 373.126C295.265 377.809 284.955 390.712 284.955 390.712" stroke="#160C02" stroke-width="0.5" stroke-linecap="round" stroke-linejoin="round"/>
<path d="M259.43 361.145C259.43 361.145 257.168 349.26 260.98 342.923C264.304 337.396 271.201 334.697 272.976 329.797C273.042 329.633 273.153 329.492 273.298 329.39C273.442 329.288 273.612 329.229 273.788 329.222C273.965 329.214 274.14 329.257 274.292 329.346C274.445 329.435 274.569 329.566 274.649 329.723C276.594 333.37 280.059 340.599 279.41 344.737C278.516 350.434 276.378 371.607 259.43 361.145Z" fill="#389B73"/>
<path d="M259.43 361.145C259.43 361.145 257.168 349.26 260.98 342.923C264.304 337.396 271.201 334.697 272.976 329.797C273.042 329.633 273.153 329.492 273.298 329.39C273.442 329.288 273.612 329.229 273.788 329.222C273.965 329.214 274.14 329.257 274.292 329.346C274.445 329.435 274.569 329.566 274.649 329.723C276.594 333.37 280.059 340.599 279.41 344.737C278.516 350.434 276.378 371.607 259.43 361.145Z" stroke="#160C02" stroke-width="0.5" stroke-linecap="round" stroke-linejoin="round"/>
<path d="M274.648 329.723C274.821 334.68 274.072 339.625 272.439 344.309C270.794 348.991 260.484 361.894 260.484 361.894" stroke="#160C02" stroke-width="0.5" stroke-linecap="round" stroke-linejoin="round"/>
<path d="M235.901 330.309C235.901 330.309 233.638 318.424 237.45 312.087C240.775 306.56 247.672 303.861 249.446 298.961C249.512 298.797 249.624 298.656 249.768 298.554C249.912 298.452 250.083 298.393 250.259 298.385C250.435 298.378 250.61 298.421 250.763 298.51C250.915 298.599 251.039 298.729 251.119 298.887C253.065 302.534 256.53 309.763 255.881 313.901C254.986 319.598 252.848 340.771 235.901 330.309Z" fill="#389B73"/>
<path d="M235.901 330.309C235.901 330.309 233.638 318.424 237.45 312.087C240.775 306.56 247.672 303.861 249.446 298.961C249.512 298.797 249.624 298.656 249.768 298.554C249.912 298.452 250.083 298.393 250.259 298.385C250.435 298.378 250.61 298.421 250.763 298.51C250.915 298.599 251.039 298.729 251.119 298.887C253.065 302.534 256.53 309.763 255.881 313.901C254.986 319.598 252.848 340.771 235.901 330.309Z" stroke="#160C02" stroke-width="0.5" stroke-linecap="round" stroke-linejoin="round"/>
<path d="M251.119 298.887C251.292 303.843 250.543 308.789 248.91 313.472C247.265 318.155 236.955 331.058 236.955 331.058" stroke="#160C02" stroke-width="0.5" stroke-linecap="round" stroke-linejoin="round"/>
<path d="M214.331 296.858C214.331 296.858 212.068 284.973 215.88 278.637C219.205 273.11 226.102 270.411 227.876 265.51C227.942 265.347 228.054 265.205 228.198 265.103C228.342 265.001 228.512 264.943 228.689 264.935C228.865 264.928 229.04 264.971 229.193 265.06C229.345 265.148 229.469 265.279 229.549 265.437C231.495 269.084 234.96 276.313 234.31 280.451C233.416 286.148 231.278 307.321 214.331 296.858Z" fill="#389B73"/>
<path d="M214.331 296.858C214.331 296.858 212.068 284.973 215.88 278.637C219.205 273.11 226.102 270.411 227.876 265.51C227.942 265.347 228.054 265.205 228.198 265.103C228.342 265.001 228.512 264.943 228.689 264.935C228.865 264.928 229.04 264.971 229.193 265.06C229.345 265.148 229.469 265.279 229.549 265.437C231.495 269.084 234.96 276.313 234.31 280.451C233.416 286.148 231.278 307.321 214.331 296.858Z" stroke="#160C02" stroke-width="0.5" stroke-linecap="round" stroke-linejoin="round"/>
<path d="M229.548 265.436C229.722 270.393 228.973 275.339 227.34 280.022C225.695 284.705 215.385 297.608 215.385 297.608" stroke="#160C02" stroke-width="0.5" stroke-linecap="round" stroke-linejoin="round"/>
<path d="M197.073 258.886C197.073 258.886 194.81 247.001 198.622 240.664C201.947 235.138 208.844 232.439 210.618 227.538C210.684 227.374 210.796 227.233 210.94 227.131C211.084 227.029 211.255 226.971 211.431 226.963C211.607 226.955 211.782 226.998 211.935 227.087C212.087 227.176 212.211 227.307 212.291 227.464C214.237 231.111 217.702 238.341 217.052 242.478C216.158 248.175 214.02 269.348 197.073 258.886Z" fill="#389B73"/>
<path d="M197.073 258.886C197.073 258.886 194.81 247.001 198.622 240.664C201.947 235.138 208.844 232.439 210.618 227.538C210.684 227.374 210.796 227.233 210.94 227.131C211.084 227.029 211.255 226.971 211.431 226.963C211.607 226.955 211.782 226.998 211.935 227.087C212.087 227.176 212.211 227.307 212.291 227.464C214.237 231.111 217.702 238.341 217.052 242.478C216.158 248.175 214.02 269.348 197.073 258.886Z" stroke="#160C02" stroke-width="0.5" stroke-linecap="round" stroke-linejoin="round"/>
<path d="M212.291 227.464C212.464 232.421 211.715 237.367 210.082 242.05C208.437 246.732 198.127 259.636 198.127 259.636" stroke="#160C02" stroke-width="0.5" stroke-linecap="round" stroke-linejoin="round"/>
<path d="M174.651 217.13C174.651 217.13 172.389 205.246 176.2 198.909C179.525 193.382 186.422 190.683 188.196 185.783C188.262 185.619 188.374 185.478 188.518 185.376C188.662 185.274 188.833 185.215 189.009 185.208C189.185 185.2 189.36 185.243 189.513 185.332C189.665 185.421 189.789 185.551 189.869 185.709C191.815 189.356 195.28 196.585 194.631 200.723C193.736 206.42 191.598 227.593 174.651 217.13Z" fill="#389B73"/>
<path d="M174.651 217.13C174.651 217.13 172.389 205.246 176.2 198.909C179.525 193.382 186.422 190.683 188.196 185.783C188.262 185.619 188.374 185.478 188.518 185.376C188.662 185.274 188.833 185.215 189.009 185.208C189.185 185.2 189.36 185.243 189.513 185.332C189.665 185.421 189.789 185.551 189.869 185.709C191.815 189.356 195.28 196.585 194.631 200.723C193.736 206.42 191.598 227.593 174.651 217.13Z" stroke="#160C02" stroke-width="0.5" stroke-linecap="round" stroke-linejoin="round"/>
<path d="M189.869 185.709C190.042 190.666 189.293 195.611 187.66 200.295C186.015 204.977 175.705 217.88 175.705 217.88" stroke="#160C02" stroke-width="0.5" stroke-linecap="round" stroke-linejoin="round"/>
<path d="M149.045 185.951C149.045 185.951 146.783 174.066 150.595 167.729C153.919 162.203 160.817 159.504 162.591 154.603C162.657 154.439 162.768 154.298 162.913 154.196C163.057 154.094 163.227 154.036 163.404 154.028C163.58 154.02 163.755 154.063 163.907 154.152C164.06 154.241 164.184 154.372 164.264 154.529C166.209 158.177 169.674 165.406 169.025 169.543C168.131 175.24 165.993 196.414 149.045 185.951Z" fill="#389B73"/>
<path d="M149.045 185.951C149.045 185.951 146.783 174.066 150.595 167.729C153.919 162.203 160.817 159.504 162.591 154.603C162.657 154.439 162.768 154.298 162.913 154.196C163.057 154.094 163.227 154.036 163.404 154.028C163.58 154.02 163.755 154.063 163.907 154.152C164.06 154.241 164.184 154.372 164.264 154.529C166.209 158.177 169.674 165.406 169.025 169.543C168.131 175.24 165.993 196.414 149.045 185.951Z" stroke="#160C02" stroke-width="0.5" stroke-linecap="round" stroke-linejoin="round"/>
<path d="M164.263 154.529C164.436 159.486 163.687 164.432 162.054 169.115C160.41 173.798 150.099 186.701 150.099 186.701" stroke="#160C02" stroke-width="0.5" stroke-linecap="round" stroke-linejoin="round"/>
<path d="M135.72 178.272C135.72 178.272 124.968 183.832 117.502 182.145C110.99 180.675 105.988 175.07 100.619 174.854C100.443 174.852 100.271 174.798 100.124 174.7C99.9779 174.602 99.8632 174.463 99.7943 174.301C99.7253 174.139 99.7052 173.96 99.7362 173.787C99.7673 173.613 99.8482 173.453 99.9691 173.324C102.837 170.459 108.654 165.141 112.894 164.537C118.731 163.706 140.017 159.518 135.72 178.272Z" fill="#389B73"/>
<path d="M135.72 178.272C135.72 178.272 124.968 183.832 117.502 182.145C110.99 180.675 105.988 175.07 100.619 174.854C100.443 174.852 100.271 174.798 100.124 174.7C99.9779 174.602 99.8632 174.463 99.7943 174.301C99.7253 174.139 99.7052 173.96 99.7362 173.787C99.7673 173.613 99.8482 173.453 99.9691 173.324C102.837 170.459 108.654 165.141 112.894 164.537C118.731 163.706 140.017 159.518 135.72 178.272Z" stroke="#160C02" stroke-width="0.5" stroke-linecap="round" stroke-linejoin="round"/>
<path d="M99.9704 173.324C104.772 171.708 109.824 170.962 114.888 171.121C120 171.281 136.085 177.076 136.085 177.076" stroke="#160C02" stroke-width="0.5" stroke-linecap="round" stroke-linejoin="round"/>
<path d="M164.326 203.059C164.326 203.059 154.799 197.996 148.345 199.312C142.717 200.459 138.525 205.238 133.856 205.316C133.703 205.316 133.554 205.362 133.427 205.448C133.301 205.534 133.203 205.656 133.147 205.798C133.091 205.94 133.079 206.096 133.112 206.245C133.146 206.394 133.223 206.53 133.335 206.634C135.916 209.189 141.14 213.94 144.85 214.553C149.958 215.397 168.62 219.481 164.326 203.059Z" stroke="#160C02" stroke-width="0.5" stroke-linecap="round" stroke-linejoin="round"/>
<path d="M184.204 236.275C184.204 236.275 173.26 230.46 165.847 231.97C159.383 233.288 154.568 238.778 149.204 238.867C149.028 238.867 148.857 238.92 148.712 239.019C148.566 239.118 148.454 239.258 148.39 239.421C148.325 239.584 148.311 239.763 148.35 239.935C148.388 240.106 148.477 240.262 148.606 240.382C151.571 243.316 157.57 248.773 161.832 249.477C167.7 250.447 189.136 255.138 184.204 236.275Z" stroke="#160C02" stroke-width="0.5" stroke-linecap="round" stroke-linejoin="round"/>
<path d="M204.092 275.233C204.092 275.233 193.149 269.418 185.736 270.929C179.271 272.246 174.456 277.736 169.093 277.826C168.917 277.825 168.745 277.878 168.6 277.977C168.455 278.076 168.343 278.216 168.278 278.379C168.214 278.542 168.2 278.721 168.238 278.893C168.277 279.064 168.366 279.22 168.494 279.34C171.459 282.274 177.459 287.731 181.721 288.435C187.589 289.405 209.024 294.096 204.092 275.233Z" stroke="#160C02" stroke-width="0.5" stroke-linecap="round" stroke-linejoin="round"/>
<path d="M223.889 314.314C223.889 314.314 212.946 308.498 205.533 310.009C199.068 311.327 194.253 316.816 188.889 316.906C188.714 316.906 188.542 316.958 188.397 317.057C188.252 317.156 188.14 317.296 188.075 317.459C188.011 317.623 187.997 317.802 188.035 317.973C188.074 318.144 188.163 318.3 188.291 318.42C191.256 321.355 197.256 326.811 201.518 327.515C207.385 328.485 228.821 333.176 223.889 314.314Z" stroke="#160C02" stroke-width="0.5" stroke-linecap="round" stroke-linejoin="round"/>
<path d="M247.305 346.312C247.305 346.312 235.851 341.582 228.652 343.816C222.373 345.764 218.159 351.714 212.847 352.329C212.673 352.347 212.508 352.418 212.374 352.531C212.239 352.645 212.143 352.796 212.095 352.965C212.048 353.134 212.053 353.314 212.109 353.48C212.165 353.647 212.269 353.793 212.409 353.899C215.652 356.536 222.164 361.393 226.465 361.678C232.386 362.07 254.133 364.651 247.305 346.312Z" stroke="#160C02" stroke-width="0.5" stroke-linecap="round" stroke-linejoin="round"/>
<path d="M271.046 375.934C271.046 375.934 259.13 372.574 252.285 375.65C246.315 378.332 242.883 384.756 237.704 385.996C237.533 386.037 237.378 386.128 237.259 386.257C237.141 386.387 237.063 386.549 237.038 386.723C237.012 386.896 237.039 387.074 237.115 387.232C237.191 387.391 237.313 387.523 237.464 387.611C240.998 389.856 248.041 393.925 252.33 393.701C258.236 393.392 280.069 393.395 271.046 375.934Z" stroke="#160C02" stroke-width="0.5" stroke-linecap="round" stroke-linejoin="round"/>
<path d="M295.96 403.615C295.96 403.615 283.858 401.069 277.262 404.609C271.51 407.696 268.55 414.351 263.483 415.943C263.315 415.997 263.168 416.099 263.059 416.237C262.95 416.375 262.885 416.542 262.871 416.717C262.858 416.893 262.898 417.068 262.985 417.22C263.072 417.373 263.202 417.496 263.36 417.574C267.038 419.577 274.34 423.165 278.594 422.649C284.452 421.938 306.189 420.454 295.96 403.615Z" stroke="#160C02" stroke-width="0.5" stroke-linecap="round" stroke-linejoin="round"/>
<path d="M378.93 243.023C378.93 243.023 365.123 209.312 399.215 168.924C433.307 128.535 419.692 180.17 401.325 207.97C382.958 235.771 386.527 231.77 386.527 231.77L378.93 243.023Z" fill="#389B73"/>
<path d="M394.158 221.621C394.158 221.621 437.338 180.095 481.052 186.21C524.765 192.325 478.567 208.244 455.321 211.573C425.575 215.833 384.865 234.184 384.865 234.184C384.865 234.184 392.791 224.007 394.158 221.621Z" fill="#389B73"/>
<path d="M416.3 192.703C416.3 192.703 456.194 155.606 488.185 163.677C520.175 171.748 484.444 180.522 466.862 180.527C449.28 180.532 409.596 200.711 409.596 200.711C409.596 200.711 415.077 194.373 416.3 192.703Z" fill="#389B73"/>
<path d="M425.427 182.754C425.427 182.754 432.827 133.468 464.527 117.83C496.227 102.192 505.725 125.5 485.593 138.47C465.462 151.441 440.567 167.833 425.427 182.754Z" fill="#389B73"/>
<path d="M410.041 166.071C410.041 166.071 389.384 198.563 382.868 237.19" stroke="#160C02" stroke-width="0.5" stroke-linecap="round" stroke-linejoin="round"/>
<path d="M363.221 268.342C363.221 268.342 319.977 251.338 343.901 204.695C367.825 158.051 364.508 203.05 365.998 235.802C366.476 243.256 367.7 250.643 369.65 257.852L363.221 268.342Z" fill="#389B73"/>
<path d="M354.032 202.257C354.032 202.257 351.202 236.466 366.144 264.021" stroke="#160C02" stroke-width="0.5" stroke-linecap="round" stroke-linejoin="round"/>
<path d="M483.236 194.974C483.236 194.974 454.632 192.026 389.966 226.858" stroke="#160C02" stroke-width="0.5" stroke-linecap="round" stroke-linejoin="round"/>
<path d="M374.731 249.503C374.731 249.503 412.309 219.302 456.023 225.417C499.736 231.531 453.538 247.45 430.293 250.779C400.546 255.039 366.786 262.317 366.786 262.317C366.786 262.317 373.364 251.889 374.731 249.503Z" fill="#389B73"/>
<path d="M458.207 234.181C458.207 234.181 431.974 231.242 371.254 255.189" stroke="#160C02" stroke-width="0.5" stroke-linecap="round" stroke-linejoin="round"/>
<path d="M413.068 196.448C413.068 196.448 457.398 166.883 488.346 171.614" stroke="#160C02" stroke-width="0.5" stroke-linecap="round" stroke-linejoin="round"/>
<path d="M335.14 328.317C335.14 328.317 350.745 274.7 411.108 198.693C411.108 198.693 450.572 151.618 473.539 136.208" stroke="#160C02" stroke-width="0.5" stroke-linecap="round" stroke-linejoin="round"/>
<path d="M378.93 243.023C378.93 243.023 365.123 209.312 399.215 168.924C433.307 128.535 419.692 180.17 401.325 207.97C382.958 235.771 386.527 231.77 386.527 231.77L378.93 243.023Z" stroke="#160C02" stroke-width="0.5" stroke-linecap="round" stroke-linejoin="round"/>
<path d="M394.158 221.621C394.158 221.621 437.338 180.095 481.052 186.21C524.765 192.325 478.567 208.244 455.321 211.573C425.575 215.833 384.865 234.184 384.865 234.184C384.865 234.184 392.791 224.007 394.158 221.621Z" stroke="#160C02" stroke-width="0.5" stroke-linecap="round" stroke-linejoin="round"/>
<path d="M416.3 192.703C416.3 192.703 456.194 155.606 488.185 163.677C520.175 171.748 484.444 180.522 466.862 180.527C449.28 180.532 409.596 200.711 409.596 200.711C409.596 200.711 415.077 194.373 416.3 192.703Z" stroke="#160C02" stroke-width="0.5" stroke-linecap="round" stroke-linejoin="round"/>
<path d="M425.427 182.754C425.427 182.754 432.827 133.468 464.527 117.83C496.227 102.192 505.725 125.5 485.593 138.47C465.462 151.441 440.567 167.833 425.427 182.754Z" stroke="#160C02" stroke-width="0.5" stroke-linecap="round" stroke-linejoin="round"/>
<path d="M363.221 268.342C363.221 268.342 319.977 251.338 343.901 204.695C367.825 158.051 364.508 203.05 365.998 235.802C366.476 243.256 367.7 250.643 369.65 257.852L363.221 268.342Z" stroke="#160C02" stroke-width="0.5" stroke-linecap="round" stroke-linejoin="round"/>
<path d="M374.731 249.503C374.731 249.503 412.309 219.302 456.023 225.417C499.736 231.531 453.538 247.45 430.293 250.779C400.546 255.039 366.786 262.317 366.786 262.317C366.786 262.317 373.364 251.889 374.731 249.503Z" stroke="#160C02" stroke-width="0.5" stroke-linecap="round" stroke-linejoin="round"/>
<path d="M306.714 114.628C306.714 114.628 304.209 163.469 296.98 178.39C289.751 193.311 295.413 211.771 336.373 213.356C377.334 214.942 387.682 206.089 387.682 206.089C387.682 206.089 399.792 199.714 394.696 179.673C389.601 159.632 372.548 152.253 373.801 125.955C375.054 99.6571 335.791 96.3931 322.412 100.943C309.033 105.492 306.714 114.628 306.714 114.628Z" fill="black" stroke="#160C02" stroke-width="0.5" stroke-miterlimit="10"/>
<path d="M297.042 492.91L391.52 502.382C395.566 502.419 399.529 501.229 402.886 498.969C406.242 496.71 408.836 493.486 410.324 489.724C415.827 476.369 421.092 412.212 416.899 396.189C416.899 396.189 411.264 384.028 398.006 382.739C384.747 381.45 393.575 350.094 398.358 345.864C403.14 341.633 433.982 345.861 450.157 349.229C466.332 352.598 464.237 401.236 462.269 419.818C460.302 438.4 442.355 525.066 400.599 520.879C358.844 516.693 284.831 511.155 284.831 511.155C284.831 511.155 279.078 493.581 297.042 492.91Z" fill="#77BFB3"/>
<path d="M416.898 396.189C421.091 412.212 415.827 476.369 410.323 489.724C408.835 493.486 406.241 496.71 402.885 498.969C399.528 501.229 395.566 502.419 391.519 502.382L297.041 492.91C279.077 493.581 284.831 511.155 284.831 511.155C284.831 511.155 358.843 516.693 400.599 520.879C406.266 517.832 411.107 513.45 414.703 508.113C418.298 502.776 420.54 496.644 421.236 490.247C423.653 468.173 428.66 397.786 428.66 397.786L416.898 396.189Z" fill="#5AA395"/>
<path d="M297.042 492.91L391.52 502.382C395.566 502.419 399.529 501.229 402.886 498.969C406.242 496.71 408.836 493.486 410.324 489.724C415.827 476.369 421.092 412.212 416.899 396.189C416.899 396.189 411.264 384.028 398.006 382.739C384.747 381.45 393.575 350.094 398.358 345.864C403.14 341.633 433.982 345.861 450.157 349.229C466.332 352.598 464.237 401.236 462.269 419.818C460.302 438.4 442.355 525.066 400.599 520.879C358.844 516.693 284.831 511.155 284.831 511.155C284.831 511.155 279.078 493.581 297.042 492.91Z" stroke="#160C02" stroke-width="0.5" stroke-linecap="round" stroke-linejoin="round"/>
<path d="M355.897 657.88L347.02 656.99L361.047 517.076L369.925 517.967L355.897 657.88Z" fill="#77BFB3"/>
<path d="M351.458 657.435L347.02 656.99L361.047 517.076L365.486 517.522L351.458 657.435Z" fill="#5AA395"/>
<path d="M355.897 657.88L347.02 656.99L361.047 517.076L369.925 517.967L355.897 657.88Z" stroke="#160C02" stroke-width="0.5" stroke-linecap="round" stroke-linejoin="round"/>
<path d="M384.268 660.725L375.391 659.835L389.418 519.921L398.296 520.811L384.268 660.725Z" fill="#77BFB3"/>
<path d="M379.829 660.28L375.391 659.835L389.418 519.921L393.857 520.366L379.829 660.28Z" fill="#5AA395"/>
<path d="M384.268 660.725L375.391 659.835L389.418 519.921L398.296 520.811L384.268 660.725Z" stroke="#160C02" stroke-width="0.5" stroke-linecap="round" stroke-linejoin="round"/>
<path d="M245.575 646.82L236.697 645.93L250.725 506.016L259.602 506.906L245.575 646.82Z" fill="#77BFB3"/>
<path d="M241.138 646.375L236.699 645.93L250.727 506.016L255.166 506.461L241.138 646.375Z" fill="#5AA395"/>
<path d="M245.575 646.82L236.697 645.93L250.725 506.016L259.602 506.906L245.575 646.82Z" stroke="#160C02" stroke-width="0.5" stroke-linecap="round" stroke-linejoin="round"/>
<path d="M273.948 649.664L265.07 648.774L279.098 508.86L287.975 509.75L273.948 649.664Z" fill="#77BFB3"/>
<path d="M269.509 649.219L265.07 648.774L279.098 508.86L283.537 509.305L269.509 649.219Z" fill="#5AA395"/>
<path d="M273.948 649.664L265.07 648.774L279.098 508.86L287.975 509.75L273.948 649.664Z" stroke="#160C02" stroke-width="0.5" stroke-linecap="round" stroke-linejoin="round"/>
<path d="M322.588 202.302C322.588 202.302 300.477 201.858 294.92 201.3C289.363 200.743 272.456 207.32 246.098 231.559C219.74 255.799 181.722 290.535 176.655 293.374C171.589 296.214 203.583 334.806 210.542 336.938C217.5 339.07 244.395 323.596 256.233 315.22C268.071 306.843 275.884 300.454 275.884 300.454C275.884 300.454 277.915 318.35 275.309 325.261C272.704 332.173 271.983 372.745 262.989 371.843C253.994 370.941 384.468 381.154 392.516 381.96C400.564 382.767 402.412 373.867 403.36 369.181C403.36 369.181 425.208 393.282 442.641 389.855C460.074 386.428 481.108 353.648 461.074 304.34C441.04 255.032 435.967 246.636 429.852 235.506C423.738 224.376 409.685 207.192 376.432 204.515C343.178 201.839 322.588 202.302 322.588 202.302ZM401.434 301.293C401.434 301.293 408.13 309.555 410.031 313.72C411.932 317.885 408.092 315.791 401.38 313.837C401.02 310.516 399.663 305.753 401.434 301.293Z" fill="#6766A5"/>
<path d="M418.483 318.839C418.483 318.839 406.292 291.493 398.31 286.875C390.327 282.257 389.385 292.806 392.431 299.359C394.25 303.165 394.664 307.492 393.602 311.575L401.674 314.092C401.674 314.092 400.49 305.314 400.962 303.304C401.434 301.294 401.207 300.9 402.719 302.989C404.231 305.078 409.749 312.749 410.616 316.532L418.483 318.839Z" fill="#4F4F8C"/>
<path d="M255.707 315.167C267.545 306.791 275.358 300.401 275.358 300.401C275.358 300.401 277.389 318.297 274.784 325.209C272.178 332.12 271.458 372.693 262.463 371.791C253.468 370.889 383.942 381.101 391.99 381.908C400.038 382.715 401.887 373.815 402.835 369.128C402.835 369.128 424.682 393.23 442.115 389.803C442.115 389.803 458.125 387.616 466.526 363.549C466.526 363.549 447.029 374.946 416.521 342.159C416.521 342.159 402.675 330.678 375.751 326.687L370.532 337.548C370.532 337.548 347.657 327.31 335.72 325.866C323.783 324.421 341.811 304.036 317.424 305.85C293.038 307.664 271.738 301.129 283.925 275.816C296.112 250.503 275.526 236.11 263.779 273.662L255.707 315.167Z" fill="#4F4F8C"/>
<path d="M384.109 308.821C384.109 308.821 411.446 316.735 425.51 320.914" stroke="#160C02" stroke-width="0.5" stroke-linecap="round" stroke-linejoin="round"/>
<path d="M394.353 292.863C394.353 292.863 406.83 306.705 410.615 316.532" stroke="#160C02" stroke-width="0.5" stroke-linecap="round" stroke-linejoin="round"/>
<path d="M423.362 385.281C423.362 385.281 391.666 361.333 375.126 345.298C373.917 344.287 372.389 343.737 370.813 343.746C367.711 343.511 370.533 337.548 370.533 337.548" stroke="#160C02" stroke-width="0.5" stroke-linecap="round" stroke-linejoin="round"/>
<path d="M279.16 252.915C279.16 252.915 274.247 272.409 275.883 300.454C275.883 300.454 277.565 319.84 276.931 325.488" stroke="#160C02" stroke-width="0.5" stroke-linecap="round" stroke-linejoin="round"/>
<path d="M335.389 231.783C335.389 231.783 323.065 251.112 318.165 268.079C313.265 285.046 323.011 299.53 323.014 302.696C323.016 305.862 324.198 357.942 324.198 357.942" stroke="#160C02" stroke-width="0.5" stroke-linecap="round" stroke-linejoin="round"/>
<path d="M345.596 232.807C345.596 232.807 333.272 252.135 328.372 269.102C323.472 286.07 333.218 300.553 333.221 303.719C333.223 306.885 334.405 358.966 334.405 358.966" stroke="#160C02" stroke-width="0.5" stroke-linecap="round" stroke-linejoin="round"/>
<path d="M217.248 257.961C217.248 257.961 246.453 230.133 260.814 219.011C275.176 207.889 277.617 207.523 277.617 207.523" stroke="#160C02" stroke-width="0.5" stroke-miterlimit="10"/>
<path d="M271.504 304.103L275.883 300.454" stroke="#160C02" stroke-width="0.5" stroke-miterlimit="10"/>
<path d="M401.434 301.294C401.434 301.294 400.322 305.27 401.379 313.837" stroke="#160C02" stroke-width="0.5" stroke-miterlimit="10"/>
<path d="M414.547 217.749C421.169 223.144 426.691 229.764 430.811 237.247C437.11 249.126 452.218 282.868 452.218 282.868C452.218 282.868 463.695 308.141 465.935 318.772C468.175 329.404 476.553 358.213 456.111 381.524" stroke="#160C02" stroke-width="0.5" stroke-miterlimit="10"/>
<path d="M384.118 308.733C384.118 308.733 375.526 328.097 371.723 336.109C371.723 336.109 355.819 333.858 349.895 332.55C345.434 334.802 341.192 337.463 337.225 340.501C334.257 343.196 331.579 346.193 329.231 349.442C329.231 349.442 326.283 353.082 323.526 350.385C320.768 347.688 321.841 345.567 321.841 345.567C321.841 345.567 316.003 346.276 315.25 343.889C315.25 343.889 308.844 343.656 312.395 335.98C312.395 335.98 316.033 330.32 318.978 328.276C318.978 328.276 309.751 329.719 310.204 325.445C310.658 321.17 314.004 319.029 321.765 315.017C329.526 311.005 337.955 307.363 341.969 305.591C345.983 303.819 355.388 302.42 384.118 308.733Z" fill="#E58361"/>
<path d="M377.827 322.791C375.6 327.731 373.266 332.856 371.722 336.109C371.722 336.109 355.818 333.858 349.894 332.55C345.433 334.802 341.191 337.463 337.223 340.501C334.256 343.196 331.577 346.193 329.23 349.442C329.23 349.442 326.282 353.082 323.524 350.385C320.767 347.688 321.84 345.567 321.84 345.567C321.84 345.567 316.001 346.276 315.248 343.889C315.248 343.889 308.842 343.656 312.394 335.979C312.394 335.979 316.031 330.32 318.976 328.276C318.976 328.276 309.749 329.719 310.203 325.445C314.913 324.681 319.575 323.649 324.167 322.355C324.167 322.355 323.187 326.435 324.249 328.804C324.249 328.804 320.962 336.644 328.945 335.184C329.313 335.117 329.706 335.029 330.123 334.921C339.594 332.458 331.584 336.794 339.252 331.686C346.919 326.578 348.799 316.855 377.827 322.791Z" fill="#D36446"/>
<path d="M346.592 322.76C346.592 322.76 338.874 325.563 335.727 327.269C332.581 328.974 321.841 345.567 321.841 345.567" stroke="#160C02" stroke-width="0.5" stroke-linecap="round" stroke-linejoin="round"/>
<path d="M315.249 343.889C315.249 343.889 322.248 328.163 329.587 323.857C334.811 320.935 340.285 318.484 345.943 316.533" stroke="#160C02" stroke-width="0.5" stroke-linecap="round" stroke-linejoin="round"/>
<path d="M318.978 328.276C318.978 328.276 326.283 319.716 335.317 315.468C344.351 311.22 345.215 311.083 345.215 311.083" stroke="#160C02" stroke-width="0.5" stroke-linecap="round" stroke-linejoin="round"/>
<path d="M384.118 308.733C384.118 308.733 375.526 328.097 371.723 336.109C371.723 336.109 355.819 333.858 349.895 332.55C345.434 334.802 341.192 337.463 337.225 340.501C334.257 343.196 331.579 346.193 329.231 349.442C329.231 349.442 326.283 353.082 323.526 350.385C320.768 347.688 321.841 345.567 321.841 345.567C321.841 345.567 316.003 346.276 315.25 343.889C315.25 343.889 308.844 343.656 312.395 335.98C312.395 335.98 316.033 330.32 318.978 328.276C318.978 328.276 309.751 329.719 310.204 325.445C310.658 321.17 314.004 319.029 321.765 315.017C329.526 311.005 337.955 307.363 341.969 305.591C345.983 303.819 355.388 302.42 384.118 308.733Z" stroke="#160C02" stroke-width="0.5" stroke-linecap="round" stroke-linejoin="round"/>
<path d="M97.1266 631.936L91.5293 631.375L118.174 365.618L123.771 366.179L97.1266 631.936Z" fill="#8E1948"/>
<path d="M119.108 412.693L113.045 416.775L118.174 365.617L123.771 366.179L119.108 412.693Z" fill="#680E3B"/>
<path d="M97.1266 631.936L91.5293 631.375L118.174 365.618L123.771 366.179L97.1266 631.936Z" stroke="#160C02" stroke-width="0.5" stroke-linecap="round" stroke-linejoin="round"/>
<path d="M173.234 639.567L167.637 639.006L194.281 373.248L199.878 373.81L173.234 639.567Z" fill="#8E1948"/>
<path d="M195.215 420.323L189.154 424.405L194.282 373.248L199.879 373.809L195.215 420.323Z" fill="#680E3B"/>
<path d="M173.234 639.567L167.637 639.006L194.281 373.248L199.878 373.81L173.234 639.567Z" stroke="#160C02" stroke-width="0.5" stroke-linecap="round" stroke-linejoin="round"/>
<path d="M492.226 671.548L486.629 670.987L513.273 405.23L518.871 405.791L492.226 671.548Z" fill="#8E1948"/>
<path d="M514.208 452.305L508.144 456.387L513.273 405.23L518.871 405.791L514.208 452.305Z" fill="#680E3B"/>
<path d="M492.226 671.548L486.629 670.987L513.273 405.23L518.871 405.791L492.226 671.548Z" stroke="#160C02" stroke-width="0.5" stroke-linecap="round" stroke-linejoin="round"/>
<path d="M417.017 664.008L411.42 663.447L438.064 397.69L443.662 398.251L417.017 664.008Z" fill="#8E1948"/>
<path d="M438.999 444.765L432.937 448.847L438.066 397.689L443.662 398.25L438.999 444.765Z" fill="#680E3B"/>
<path d="M417.017 664.008L411.42 663.447L438.064 397.69L443.662 398.251L417.017 664.008Z" stroke="#160C02" stroke-width="0.5" stroke-linecap="round" stroke-linejoin="round"/>
<path d="M79.107 589.6C79.107 589.6 74.3701 597.605 96.5942 609.059C118.818 620.513 108.829 628.123 116.444 619.66C124.058 611.197 149.535 546.789 150.877 539.543C152.218 532.297 140.738 540.049 123.082 525.978C105.426 511.906 93.3094 509.208 93.3094 509.208L79.107 589.6Z" fill="#F7B1C1"/>
<path d="M119.523 546.198C102.511 538.537 90.6719 524.137 90.6719 524.137L93.3094 509.208C93.3094 509.208 105.426 511.906 123.082 525.978C140.738 540.049 152.218 532.297 150.877 539.543C150.121 543.623 146.889 551.542 140.695 567.621C140.695 567.621 134.553 552.967 119.523 546.198Z" fill="#E288A0"/>
<path d="M79.107 589.6C79.107 589.6 74.3701 597.605 96.5942 609.059C118.818 620.513 108.829 628.123 116.444 619.66C124.058 611.197 149.535 546.789 150.877 539.543C152.218 532.297 140.738 540.049 123.082 525.978C105.426 511.906 93.3094 509.208 93.3094 509.208L79.107 589.6Z" stroke="#160C02" stroke-width="0.5" stroke-linecap="round" stroke-linejoin="round"/>
<path d="M193.594 614.88C199.554 622.893 208.093 628.608 217.773 631.062C233.97 635.147 238.172 636.183 238.172 636.183C238.172 636.183 252.469 596.513 256.43 587.684C259.37 580.469 261.759 573.043 263.577 565.467L202.362 556.431C202.362 556.431 200.481 595.274 193.594 614.88Z" fill="#F7B1C1"/>
<path d="M200.832 575.752C200.832 575.752 207.703 571.509 220.992 579.975C234.28 588.441 257.013 586.336 257.013 586.336C257.013 586.336 263.243 570.261 263.578 565.467L202.362 556.431C202.362 556.431 201.68 571.092 200.832 575.752Z" fill="#E288A0"/>
<path d="M193.594 614.88C199.554 622.893 208.093 628.608 217.773 631.062C233.97 635.147 238.172 636.183 238.172 636.183C238.172 636.183 252.469 596.513 256.43 587.684C259.37 580.469 261.759 573.043 263.577 565.467L202.362 556.431C202.362 556.431 200.481 595.274 193.594 614.88Z" stroke="#160C02" stroke-width="0.5" stroke-linecap="round" stroke-linejoin="round"/>
<path d="M262.988 371.843C262.988 371.843 238.663 376.203 219.995 378.506C201.327 380.809 155.487 397.303 151.312 400.841C129.317 419.48 114.375 460.451 108.172 470.266C103.934 476.973 95.9707 493.66 91.3539 503.552C90.9411 504.437 90.7299 505.403 90.7357 506.38C90.7414 507.356 90.964 508.319 91.3872 509.199C91.8105 510.079 92.4239 510.855 93.1831 511.469C93.9424 512.083 94.8286 512.521 95.7777 512.751C103.061 514.539 114.035 518.313 123.082 525.978C128.968 530.813 135.626 534.623 142.777 537.246C153.755 541.006 154.622 546.104 156.965 550.223C159.309 554.341 170.445 565.334 189.492 559.07C198.618 556.069 196.206 555.522 202.362 556.431C208.518 557.339 232.962 559.958 245.515 567.053C258.069 574.148 270.074 578.005 277.258 572.358C284.442 566.711 291.636 543.194 285.278 530.319C280.705 521.057 286.013 505.466 289.354 497.442C289.976 495.959 291.06 494.716 292.445 493.899C293.831 493.082 295.443 492.735 297.042 492.91C308.977 494.189 338.94 497.378 368.283 500.319C406.079 504.109 399.632 501.217 406.793 496.994C413.953 492.772 422.514 415.675 416.899 396.189C411.284 376.703 392.516 381.961 392.516 381.961L262.988 371.843Z" fill="#90B578"/>
<path d="M392.516 381.961C392.516 381.961 411.284 376.703 416.899 396.189C422.514 415.675 413.953 492.772 406.793 496.994C399.632 501.217 406.079 504.109 368.283 500.32C338.947 497.378 308.99 494.191 297.05 492.911C295.45 492.735 293.836 493.082 292.449 493.898C291.062 494.715 289.976 495.958 289.354 497.443C286.013 505.467 280.705 521.058 285.278 530.319C280.39 523.078 278.218 514.343 279.144 505.656C280.624 490.894 294.741 471.863 303.654 475.21C312.567 478.558 396.992 496.258 396.433 461.248C395.874 426.237 414.143 462.511 406.591 423.715C399.04 384.919 392.516 381.961 392.516 381.961Z" fill="#7BA063"/>
<path d="M224.562 453.436C223.222 425.674 175.845 471.545 168.196 489.871C160.548 508.197 142.777 537.246 142.777 537.246C153.755 541.006 154.622 546.104 156.965 550.222C159.308 554.341 170.444 565.334 189.491 559.07C198.618 556.069 196.206 555.522 202.362 556.431C202.362 556.431 213.118 555.121 214.225 521.331C215.332 487.541 225.641 475.794 224.562 453.436Z" fill="#7BA063"/>
<path d="M416.898 396.189C411.283 376.703 392.515 381.961 392.515 381.961L262.988 371.843C262.988 371.843 238.663 376.203 219.994 378.506C208.519 380.789 197.181 383.719 186.036 387.282C186.036 387.282 227.341 382.67 233.111 398.312C238.881 413.953 249.391 405.344 275.661 396.391C301.931 387.437 348.351 403.668 374.569 403.979C400.786 404.29 416.898 396.189 416.898 396.189Z" fill="#7BA063"/>
<path d="M262.988 371.843C262.988 371.843 238.663 376.203 219.995 378.506C201.327 380.809 155.487 397.303 151.312 400.841C129.317 419.48 114.375 460.451 108.172 470.266C103.934 476.973 95.9707 493.66 91.3539 503.552C90.9411 504.437 90.7299 505.403 90.7357 506.38C90.7414 507.356 90.964 508.319 91.3872 509.199C91.8105 510.079 92.4239 510.855 93.1831 511.469C93.9424 512.083 94.8286 512.521 95.7777 512.751C103.061 514.539 114.035 518.313 123.082 525.978C128.968 530.813 135.626 534.623 142.777 537.246C153.755 541.006 154.622 546.104 156.965 550.223C159.309 554.341 170.445 565.334 189.492 559.07C198.618 556.069 196.206 555.522 202.362 556.431C208.518 557.339 232.962 559.958 245.515 567.053C258.069 574.148 270.074 578.005 277.258 572.358C284.442 566.711 291.636 543.194 285.278 530.319C280.705 521.057 286.013 505.466 289.354 497.442C289.976 495.959 291.06 494.716 292.445 493.899C293.831 493.082 295.443 492.735 297.042 492.91C308.977 494.189 338.94 497.378 368.283 500.319C406.079 504.109 399.632 501.217 406.793 496.994C413.953 492.772 422.514 415.675 416.899 396.189C411.284 376.703 392.516 381.961 392.516 381.961L262.988 371.843Z" stroke="#160C02" stroke-width="0.5" stroke-linecap="round" stroke-linejoin="round"/>
<path d="M205.3 545C205.3 545 215.838 471.686 217.736 452.752" stroke="#160C02" stroke-width="0.5" stroke-linecap="round" stroke-linejoin="round"/>
<path d="M219.342 404.941C219.342 404.941 221.91 407.676 232.106 408.344" stroke="#160C02" stroke-width="0.5" stroke-linecap="round" stroke-linejoin="round"/>
<path d="M157.893 535.252C157.893 535.252 170.377 499.707 185.066 475.534" stroke="#160C02" stroke-width="0.5" stroke-linecap="round" stroke-linejoin="round"/>
<path d="M263.585 568.888L271.387 548.132" stroke="#160C02" stroke-width="0.5" stroke-linecap="round" stroke-linejoin="round"/>
<path d="M154.554 351.29L133.821 255.956C133.659 255.21 133.676 254.437 133.87 253.7C134.063 252.962 134.429 252.281 134.937 251.711C135.445 251.142 136.08 250.701 136.791 250.424C137.501 250.148 138.267 250.043 139.026 250.119L257.536 262.001C258.523 262.1 259.456 262.5 260.208 263.148C260.96 263.796 261.495 264.659 261.739 265.621L284.099 353.735L362.169 361.926L361.159 372.004L154.554 351.29Z" fill="#77BFB3"/>
<path d="M149.622 328.611C149.622 328.611 167.796 321.386 161.785 297.932C159.973 290.863 143.889 302.25 143.889 302.25L149.622 328.611Z" fill="#5AA395"/>
<path d="M152.213 340.523L362.205 361.576L361.16 372.004L154.554 351.29L152.213 340.523Z" fill="#5AA395"/>
<path d="M154.554 351.29L133.821 255.956C133.659 255.21 133.676 254.437 133.87 253.7C134.063 252.962 134.429 252.281 134.937 251.711C135.445 251.142 136.08 250.701 136.791 250.424C137.501 250.148 138.267 250.043 139.026 250.119L257.536 262.001C258.523 262.1 259.456 262.5 260.208 263.148C260.96 263.796 261.495 264.659 261.739 265.621L284.099 353.735L362.169 361.926L361.159 372.004L154.554 351.29Z" stroke="#160C02" stroke-width="0.5" stroke-linecap="round" stroke-linejoin="round"/>
<path d="M146.889 323.167C146.889 323.167 161.79 316.569 157.44 310.148C157.44 310.148 161.252 306.689 160.191 302.653C159.128 298.616 157.331 299.527 157.331 299.527C157.331 299.527 162.021 296.273 160.504 292.223C158.987 288.173 153.292 289.394 153.292 289.394C153.833 288.821 154.235 288.132 154.467 287.378C154.699 286.625 154.754 285.828 154.628 285.05C154.503 284.272 154.2 283.534 153.743 282.892C153.286 282.249 152.687 281.721 151.994 281.347C147.055 278.019 142.639 283.544 139.71 285.422C136.78 287.3 126.556 296.636 132.677 299.29C132.677 299.29 130.763 303.187 132.169 305.458C133.123 306.998 132.813 307.492 135.824 308.347C134.888 309.25 134.249 310.417 133.992 311.692C133.735 312.967 133.871 314.29 134.383 315.486C134.78 316.396 135.438 317.169 136.273 317.706C137.108 318.244 138.083 318.522 139.077 318.507C139.077 318.507 137.635 320.261 139.802 323.129C141.969 325.997 145.801 323.821 146.889 323.167Z" fill="#E58361"/>
<path d="M132.168 305.458C130.762 303.187 132.676 299.29 132.676 299.29C126.555 296.636 136.779 287.3 139.709 285.422C142.638 283.544 147.054 278.019 151.992 281.347C152.686 281.721 153.285 282.249 153.742 282.892C154.199 283.534 154.501 284.272 154.627 285.05C154.753 285.829 154.697 286.625 154.466 287.378C154.234 288.132 153.832 288.821 153.291 289.394C153.291 289.394 158.986 288.173 160.503 292.223C162.02 296.273 157.33 299.527 157.33 299.527C157.33 299.527 159.127 298.616 160.189 302.653C160.189 302.653 152.733 306.349 149.048 306.439C145.363 306.53 147.348 298.495 132.168 305.458Z" fill="#FFB088"/>
<path d="M157.439 310.148C157.439 310.148 152.128 313.726 139.076 318.507" stroke="#160C02" stroke-width="0.5" stroke-linecap="round" stroke-linejoin="round"/>
<path d="M157.33 299.527C157.33 299.527 151.471 304.238 135.823 308.347" stroke="#160C02" stroke-width="0.5" stroke-linecap="round" stroke-linejoin="round"/>
<path d="M132.676 299.29C132.676 299.29 139.228 294.521 153.291 289.394" stroke="#160C02" stroke-width="0.5" stroke-linecap="round" stroke-linejoin="round"/>
<path d="M146.889 323.167C146.889 323.167 161.79 316.569 157.44 310.148C157.44 310.148 161.252 306.689 160.191 302.653C159.128 298.616 157.331 299.527 157.331 299.527C157.331 299.527 162.021 296.273 160.504 292.223C158.987 288.173 153.292 289.394 153.292 289.394C153.833 288.821 154.235 288.132 154.467 287.378C154.699 286.625 154.754 285.828 154.628 285.05C154.503 284.272 154.2 283.534 153.743 282.892C153.286 282.249 152.687 281.721 151.994 281.347C147.055 278.019 142.639 283.544 139.71 285.422C136.78 287.3 126.556 296.636 132.677 299.29C132.677 299.29 130.763 303.187 132.169 305.458C133.123 306.998 132.813 307.492 135.824 308.347C134.888 309.25 134.249 310.417 133.992 311.692C133.735 312.967 133.871 314.29 134.383 315.486C134.78 316.396 135.438 317.169 136.273 317.706C137.108 318.244 138.083 318.522 139.077 318.507C139.077 318.507 137.635 320.261 139.802 323.129C141.969 325.997 145.801 323.821 146.889 323.167Z" stroke="#160C02" stroke-width="0.5" stroke-linecap="round" stroke-linejoin="round"/>
<path d="M537.378 408.686L94.8385 363.221L96.617 345.481L539.266 389.861L537.378 408.686Z" fill="#8E1948"/>
<path d="M428.659 397.786L94.8371 363.221L96.6156 345.481L430.547 378.961L428.659 397.786Z" fill="#680E3B"/>
<path d="M96.617 345.481L539.266 389.861L537.378 408.686L94.8385 363.221L96.617 345.481Z" stroke="#160C02" stroke-width="0.5" stroke-linecap="round" stroke-linejoin="round"/>
<path d="M248.998 395.175C248.998 395.175 251.38 396.121 259.158 396.193" stroke="#160C02" stroke-width="0.5" stroke-linecap="round" stroke-linejoin="round"/>
<path d="M237.884 625.127C237.884 625.127 243.412 622.874 242.761 629.359C242.111 635.843 243.954 645.073 244.509 648.871C245.063 652.67 233.446 657.089 213.475 658.345C193.503 659.6 141.333 657.036 132.948 646.124C124.563 635.213 127.471 618.028 150.316 620.615C173.16 623.201 175.594 625.519 187.236 624.612C187.236 624.612 185.656 610.829 200.436 611.126C215.217 611.423 204.597 625.761 214.275 626.731C223.952 627.701 237.884 625.127 237.884 625.127Z" fill="#6766A5"/>
<path d="M213.475 658.345C193.503 659.6 141.333 657.036 132.948 646.124C124.563 635.213 127.471 618.028 150.316 620.615C173.16 623.201 175.594 625.519 187.236 624.612C187.236 624.612 185.656 610.829 200.437 611.126C200.437 611.126 186.683 630.012 193.756 636.661C200.829 643.31 201.868 638.953 209.173 645.085C216.478 651.217 213.475 658.345 213.475 658.345Z" fill="#4F4F8C"/>
<path d="M237.884 625.127C237.884 625.127 243.412 622.874 242.761 629.359C242.111 635.843 243.954 645.073 244.509 648.871C245.063 652.67 233.446 657.089 213.475 658.345C193.503 659.6 141.333 657.036 132.948 646.124C124.563 635.213 127.471 618.028 150.316 620.615C173.16 623.201 175.594 625.519 187.236 624.612C187.236 624.612 185.656 610.829 200.436 611.126C215.217 611.423 204.597 625.761 214.275 626.731C223.952 627.701 237.884 625.127 237.884 625.127Z" stroke="#160C02" stroke-width="0.5" stroke-linecap="round" stroke-linejoin="round"/>
<path d="M242.919 637.751C242.919 637.751 232.676 639.811 231.768 645.882C230.86 651.953 222.725 653.271 198.956 650.888C175.186 648.505 135.769 639.483 128.659 634.77C128.659 634.77 125.114 634.415 125.165 641.889C125.216 649.364 125.69 652.613 149.67 658.218C173.65 663.823 221.067 665.109 236.438 660.782C251.809 656.454 249.018 653.88 242.919 637.751Z" fill="#CCC09A"/>
<path d="M188.77 663.027C210.552 664.316 227.298 663.354 236.437 660.782C251.808 656.454 248.255 654.074 242.918 637.751C242.918 637.751 232.675 639.812 231.767 645.882C230.86 651.953 222.724 653.271 198.955 650.888C198.955 650.888 189.233 656.198 188.77 663.027Z" fill="#ECE5CA"/>
<path d="M242.918 637.751C242.918 637.751 232.675 639.811 231.767 645.882C230.86 651.953 222.725 653.271 198.955 650.888C175.185 648.505 135.768 639.483 128.658 634.77C128.658 634.77 125.113 634.415 125.164 641.889C125.215 649.364 125.69 652.613 149.67 658.218C173.65 663.823 221.066 665.109 236.437 660.782C251.808 656.454 248.216 653.635 242.918 637.751Z" stroke="#160C02" stroke-width="0.5" stroke-linecap="round" stroke-linejoin="round"/>
<path d="M118.427 615.021C118.427 615.021 124.375 615.526 120.849 621.007C117.323 626.488 114.769 635.546 113.537 639.182C112.305 642.818 99.9489 641.475 81.5881 633.517C63.2272 625.559 17.921 599.565 15.4111 586.035C12.9014 572.505 23.3009 558.519 42.4746 571.205C61.6482 583.891 60.4947 584.999 71.2774 589.482C71.2774 589.482 76.1342 576.486 89.165 583.468C102.196 590.45 86.2202 598.395 94.3996 603.657C102.579 608.92 118.427 615.021 118.427 615.021Z" fill="#6766A5"/>
<path d="M81.5877 633.517C63.2269 625.559 17.9206 599.565 15.4107 586.035C12.901 572.505 23.3005 558.519 42.4742 571.205C59.2204 582.285 60.4605 584.532 67.69 587.911C68.5936 588.327 69.6147 588.412 70.5746 588.151C71.5344 587.89 72.3717 587.299 72.9397 586.482C75.3113 583.133 80.3809 578.762 89.1646 583.468C89.1646 583.468 68.3302 594.04 71.6091 603.177C74.888 612.315 80.0615 610.968 83.7817 619.751C87.5019 628.533 81.5877 633.517 81.5877 633.517Z" fill="#4F4F8C"/>
<path d="M118.427 615.021C118.427 615.021 124.375 615.526 120.849 621.007C117.323 626.488 114.769 635.546 113.537 639.182C112.305 642.818 99.9489 641.475 81.5881 633.517C63.2272 625.559 17.921 599.565 15.4111 586.035C12.9014 572.505 23.3009 558.519 42.4746 571.205C59.4428 582.432 60.4911 584.591 67.9813 588.046C68.8022 588.431 69.7331 588.512 70.6078 588.273C71.4826 588.035 72.2443 587.494 72.757 586.746C75.0454 583.371 80.1483 578.637 89.165 583.468C102.196 590.45 86.2202 598.395 94.3996 603.657C102.579 608.92 118.427 615.021 118.427 615.021Z" stroke="#160C02" stroke-width="0.5" stroke-linecap="round" stroke-linejoin="round"/>
<path d="M117.175 628.554C117.175 628.554 107.114 625.735 103.547 630.73C99.9793 635.725 92.1335 633.202 72.0436 620.277C51.9534 607.352 20.9419 581.402 16.7509 573.972C16.7509 573.972 13.7542 572.045 10.4028 578.726C7.05126 585.407 5.99746 588.517 24.8108 604.408C43.624 620.299 85.2762 642.993 100.935 646.124C116.594 649.254 115.278 645.694 117.175 628.554Z" fill="#CCC09A"/>
<path d="M57.4542 626.461C76.2709 637.508 91.6252 644.263 100.935 646.124C116.594 649.255 114.51 645.52 117.174 628.555C117.174 628.555 107.114 625.735 103.546 630.73C99.979 635.725 92.1332 633.202 72.0433 620.277C72.0433 620.277 60.9703 620.589 57.4542 626.461Z" fill="#ECE5CA"/>
<path d="M117.175 628.554C117.175 628.554 107.114 625.735 103.547 630.73C99.9793 635.725 92.1335 633.202 72.0436 620.277C51.9534 607.352 20.9419 581.402 16.7509 573.972C16.7509 573.972 13.7542 572.045 10.4028 578.726C7.05126 585.407 5.99746 588.517 24.8108 604.408C43.624 620.299 85.2762 642.993 100.935 646.124C116.594 649.254 114.675 645.11 117.175 628.554Z" stroke="#160C02" stroke-width="0.5" stroke-linecap="round" stroke-linejoin="round"/>
<path d="M437.043 322.07C438.403 316.499 438.978 310.765 438.751 305.035C438.751 305.035 445.028 295.641 444.757 284.559C444.757 284.559 453.925 275.806 456.61 265.574C462.459 262.148 467.651 257.708 471.943 252.461C471.943 252.461 481.563 264.759 488.075 268.728C488.075 268.728 491.646 283.457 496.998 290.35C496.998 290.35 496.412 303.826 498.941 311.821C498.941 311.821 497.307 322.732 498.689 328.251L437.043 322.07Z" fill="#7BA063"/>
<path d="M468.401 325.214L437.043 322.07C438.403 316.499 438.978 310.765 438.751 305.035C438.751 305.035 445.027 295.641 444.757 284.559C444.757 284.559 453.925 275.806 456.609 265.573C462.459 262.148 467.651 257.708 471.943 252.461C471.943 252.461 467.721 269.084 468.314 277.161C468.314 277.161 464.467 291.54 466.813 300.127C466.813 300.127 463.424 313.83 468.401 325.214Z" fill="#608449"/>
<path d="M437.043 322.07C438.403 316.499 438.978 310.765 438.751 305.035C438.751 305.035 445.028 295.641 444.757 284.559C444.757 284.559 453.925 275.806 456.61 265.574C462.459 262.148 467.651 257.708 471.943 252.461C471.943 252.461 481.563 264.759 488.075 268.728C488.075 268.728 491.646 283.457 496.998 290.35C496.998 290.35 496.412 303.826 498.941 311.821C498.941 311.821 497.307 322.732 498.689 328.251L437.043 322.07Z" stroke="#160C02" stroke-width="0.5" stroke-linecap="round" stroke-linejoin="round"/>
<path d="M454.471 323.818C456.7 316.22 454.563 305.27 454.563 305.27C458.253 299.095 459.971 285.978 459.971 285.978C465.825 277.045 464.341 269.143 464.341 269.143C470.828 262.835 471.941 252.461 471.941 252.461C471.941 252.461 477.063 267.823 479.358 270.649C479.358 270.649 479.137 282.743 484.261 289.009C484.261 289.009 482.451 301.124 485.297 308.351C485.297 308.351 484.456 318.692 484.437 326.822" stroke="#160C02" stroke-width="0.5" stroke-linecap="round" stroke-linejoin="round"/>
<path d="M472.259 281.34L474.314 280.733" stroke="#160C02" stroke-width="0.5" stroke-linecap="round" stroke-linejoin="round"/>
<path d="M474.811 289.303L476.97 292.122" stroke="#160C02" stroke-width="0.5" stroke-linecap="round" stroke-linejoin="round"/>
<path d="M463.855 299.83L466.463 298.558" stroke="#160C02" stroke-width="0.5" stroke-linecap="round" stroke-linejoin="round"/>
<path d="M473.101 311.777L475.652 312.033" stroke="#160C02" stroke-width="0.5" stroke-linecap="round" stroke-linejoin="round"/>
<path d="M471.404 269.182L472.76 270.538" stroke="#160C02" stroke-width="0.5" stroke-linecap="round" stroke-linejoin="round"/>
<path d="M465.715 312.387L464.931 313.839" stroke="#160C02" stroke-width="0.5" stroke-linecap="round" stroke-linejoin="round"/>
<path d="M479.492 302.142L478.496 303.964" stroke="#160C02" stroke-width="0.5" stroke-linecap="round" stroke-linejoin="round"/>
<path d="M490.695 300.008L493.152 298.492" stroke="#160C02" stroke-width="0.5" stroke-linecap="round" stroke-linejoin="round"/>
<path d="M490.483 288.593L490.793 290.904" stroke="#160C02" stroke-width="0.5" stroke-linecap="round" stroke-linejoin="round"/>
<path d="M484.24 279.15L486.926 279.42" stroke="#160C02" stroke-width="0.5" stroke-linecap="round" stroke-linejoin="round"/>
<path d="M485.041 271.16L484.846 273.106" stroke="#160C02" stroke-width="0.5" stroke-linecap="round" stroke-linejoin="round"/>
<path d="M492.625 311.868L491.634 313.635" stroke="#160C02" stroke-width="0.5" stroke-linecap="round" stroke-linejoin="round"/>
<path d="M490.504 319.488L493.459 319.784" stroke="#160C02" stroke-width="0.5" stroke-linecap="round" stroke-linejoin="round"/>
<path d="M473.633 319.324L474.747 321.063" stroke="#160C02" stroke-width="0.5" stroke-linecap="round" stroke-linejoin="round"/>
<path d="M450.251 317.794L447.78 316.732" stroke="#160C02" stroke-width="0.5" stroke-linecap="round" stroke-linejoin="round"/>
<path d="M444.285 311.004L446.736 308.201" stroke="#160C02" stroke-width="0.5" stroke-linecap="round" stroke-linejoin="round"/>
<path d="M449.353 301.043L451.853 301.814" stroke="#160C02" stroke-width="0.5" stroke-linecap="round" stroke-linejoin="round"/>
<path d="M448.659 295.795L448.27 292.907" stroke="#160C02" stroke-width="0.5" stroke-linecap="round" stroke-linejoin="round"/>
<path d="M451.789 289.597L454.226 291.675" stroke="#160C02" stroke-width="0.5" stroke-linecap="round" stroke-linejoin="round"/>
<path d="M455.283 281.131L452.476 282.748" stroke="#160C02" stroke-width="0.5" stroke-linecap="round" stroke-linejoin="round"/>
<path d="M459.972 274.953L458.952 272.953" stroke="#160C02" stroke-width="0.5" stroke-linecap="round" stroke-linejoin="round"/>
<path d="M436.793 379.587C436.793 379.587 435.895 345.758 433.988 330.739L429.069 330.246C429.069 330.246 425.855 325.042 426.407 321.004L506.453 329.029C505.645 331.759 504.3 334.3 502.495 336.502L498.268 336.078C498.268 336.078 491.416 365.101 487.484 384.669L436.793 379.587Z" fill="#F7B1C1"/>
<path d="M490.942 368.298C489.707 373.944 488.498 379.621 487.484 384.669L436.793 379.587C436.793 379.587 436.443 366.41 435.716 352.853C435.716 352.853 462.466 366.547 490.942 368.298Z" fill="#E288A0"/>
<path d="M498.268 336.078L433.987 330.739L434.754 338.308C434.754 338.308 471.899 345.154 496.311 344.479L498.268 336.078Z" fill="#E288A0"/>
<path d="M436.793 379.587C436.793 379.587 435.895 345.758 433.988 330.739L429.069 330.246C429.069 330.246 425.855 325.042 426.407 321.004L506.453 329.029C505.645 331.759 504.3 334.3 502.495 336.502L498.268 336.078C498.268 336.078 491.416 365.101 487.484 384.669L436.793 379.587Z" stroke="#160C02" stroke-width="0.5" stroke-linecap="round" stroke-linejoin="round"/>
<path d="M327.795 177.171L326.024 202.255L316.939 202.173C316.939 202.173 310.952 223.284 329.475 227.424C347.998 231.564 369.607 214.456 370.625 204.301L356.717 201.923L358.416 152.804L327.795 177.171Z" fill="#D36446" stroke="#160C02" stroke-width="0.5" stroke-miterlimit="10"/>
<path d="M348.883 103.597L327.901 102.133C327.901 102.133 294.647 100.044 299.469 160.887C300.529 174.267 311.957 184.531 324.789 181.985L333.251 179.32C333.251 179.32 358.465 181.584 357.98 154.342C357.496 127.099 354.614 109.66 348.883 103.597Z" fill="#E58361"/>
<path d="M358.006 154.087C358.491 181.33 333.277 179.066 333.277 179.066L324.815 181.73C311.983 184.277 300.554 174.012 299.494 160.632C299.494 160.632 303.197 165.052 315.91 165.793C328.624 166.534 334.11 162.978 338.411 158.216C342.713 153.454 349.518 147.744 349.081 138.119C348.643 128.493 346.498 119.352 342.425 116.45C338.353 113.549 313.179 110.757 306.714 114.628C306.714 114.628 308.9 101.497 329.668 101.67C350.435 101.844 358.989 104.78 359.247 120.856C359.505 136.932 358.006 154.087 358.006 154.087Z" fill="#D36446"/>
<mask id="mask0_144_377" style="mask-type:luminance" maskUnits="userSpaceOnUse" x="300" y="119" width="13" height="13">
<path d="M304.24 119.591C302.48 123.363 301.254 127.362 300.597 131.472C300.597 131.472 311.037 131.907 312.47 127.346C312.47 127.346 309.61 121.3 304.24 119.591Z" fill="white"/>
</mask>
<g mask="url(#mask0_144_377)">
<path d="M306.259 128.109C305.944 128.019 304.664 127.699 303.03 127.134C301.682 126.675 300.288 126.361 298.872 126.197C297.669 126.116 296.46 126.217 295.286 126.496C294.32 126.75 293.407 127.177 292.593 127.757L292.359 127.893C291.555 128.202 290.667 128.216 289.853 127.934C289.306 127.716 289.487 126.934 289.803 126.548C290.935 125.192 292.342 124.092 293.93 123.32C295.543 122.667 297.211 122.161 298.915 121.809C300.638 121.46 302.42 121.535 304.108 122.028C304.774 122.133 305.713 122.286 306.488 122.451C306.882 122.536 307.256 122.696 307.59 122.923C308.01 123.225 308.461 123.481 308.935 123.686C310.873 123.728 310.617 125.772 310.174 127.13C309.595 128.907 308.735 128.702 307.602 128.193C307.421 128.128 307.232 128.092 307.041 128.085C306.783 128.134 306.519 128.142 306.259 128.109Z" fill="#160C02"/>
</g>
<mask id="mask1_144_377" style="mask-type:luminance" maskUnits="userSpaceOnUse" x="298" y="129" width="15" height="20">
<path d="M301.073 129.096C301.073 129.096 298.621 140.012 299.017 148.116C300.3 148.839 301.782 149.128 303.242 148.942C304.703 148.756 306.064 148.105 307.125 147.084C308.882 145.506 310.31 142.844 312.047 137.538C312.047 137.538 308.974 129.961 301.073 129.096Z" fill="white"/>
</mask>
<g mask="url(#mask1_144_377)">
<path d="M292.151 132.421C291.729 132.558 291.376 132.854 291.168 133.247C290.96 133.639 290.912 134.097 291.035 134.524C291.888 137.551 294.435 144.124 300.513 144.464C304.157 144.731 307.817 144.262 311.276 143.085C312.223 142.742 311.888 142.058 311.856 141.052C311.929 140.444 311.799 139.829 311.485 139.304C309.667 136.32 306.869 134.059 303.57 132.907C299.925 131.471 295.905 131.3 292.151 132.421Z" fill="white"/>
<mask id="mask2_144_377" style="mask-type:luminance" maskUnits="userSpaceOnUse" x="290" y="131" width="23" height="14">
<path d="M292.151 132.421C291.729 132.558 291.376 132.854 291.168 133.247C290.96 133.639 290.912 134.097 291.035 134.524C291.888 137.551 294.435 144.125 300.513 144.464C304.157 144.731 307.817 144.262 311.276 143.085C311.5 143.005 311.704 142.879 311.877 142.716C312.049 142.552 312.186 142.355 312.278 142.136C312.37 141.917 312.415 141.681 312.411 141.443C312.408 141.206 312.354 140.971 312.255 140.756C311.408 138.932 310.202 137.298 308.71 135.949C307.218 134.601 305.47 133.567 303.57 132.907C299.925 131.471 295.904 131.3 292.151 132.421Z" fill="white"/>
</mask>
<g mask="url(#mask2_144_377)">
<path d="M308.608 143.345C308.324 144.837 307.599 146.21 306.526 147.285C305.454 148.36 304.083 149.088 302.591 149.375C301.099 149.662 299.556 149.494 298.161 148.893C296.766 148.293 295.584 147.287 294.767 146.006C293.95 144.726 293.537 143.229 293.581 141.711C293.625 140.193 294.123 138.723 295.013 137.491C295.902 136.26 297.14 135.324 298.568 134.805C299.995 134.286 301.545 134.207 303.018 134.579C304.921 135.002 306.578 136.163 307.626 137.806C308.674 139.449 309.027 141.441 308.608 143.345Z" fill="#160C02"/>
</g>
<path d="M311.899 142.694C311.899 142.694 312.261 138.929 307.927 135.299C304.329 132.785 300 131.537 295.616 131.748C293.983 132.187 292.288 132.345 290.602 132.216C289.936 131.971 289.371 131.509 288.998 130.905C288.626 130.301 288.466 129.589 288.546 128.884C289.583 129.489 290.733 129.873 291.925 130.013C293.118 130.152 294.326 130.045 295.474 129.697C299.368 128.504 312.932 132.686 311.899 142.694Z" fill="#160C02"/>
</g>
<path d="M312.014 136.237C310.333 144.566 306.813 147.024 306.813 147.024C306.269 147.434 305.858 147.996 305.634 148.639C305.409 149.282 305.381 149.977 305.551 150.636C306.316 152.676 307.59 151.723 309.273 152.985C309.239 152.574 309.083 152.184 308.826 151.862C308.569 151.541 308.222 151.303 307.829 151.179C306.437 150.718 305.673 149.605 307.003 148.398C310.149 145.122 311.939 140.778 312.014 136.237Z" fill="#160C02"/>
<path d="M315.486 152.454C315.267 152.137 314.945 151.905 314.575 151.798C314.296 151.731 314.005 151.732 313.726 151.8C313.726 151.8 314.334 151.094 314.966 151.325C315.598 151.556 315.486 152.454 315.486 152.454Z" fill="#160C02"/>
<path d="M318.099 152.983C320.516 149.68 317.718 147.756 317.718 147.756C318.161 147.829 318.578 148.016 318.927 148.299C319.277 148.582 319.547 148.95 319.712 149.368C319.877 149.786 319.93 150.24 319.867 150.685C319.804 151.13 319.627 151.551 319.353 151.907C319.028 152.361 318.598 152.73 318.099 152.983Z" fill="#160C02"/>
<path d="M314.05 161.423C314.001 161.474 313.941 161.513 313.874 161.538C313.808 161.563 313.737 161.572 313.666 161.566C313.596 161.56 313.527 161.538 313.466 161.502C313.405 161.466 313.353 161.417 313.314 161.358C312.888 160.819 312.356 160.373 311.752 160.046C311.148 159.719 310.483 159.519 309.799 159.458C308.143 159.319 306.478 159.344 304.827 159.531C303.984 159.38 305.909 167.308 312.862 168.128C319.815 168.948 324.743 162.434 324.456 161.916C324.168 161.397 323.466 162.008 320.635 161.146C318.051 160.36 315.566 160.03 314.05 161.423Z" fill="#8E1948"/>
<path d="M324.457 161.915C324.169 161.397 323.467 162.008 320.636 161.146C318.052 160.36 315.568 160.03 314.051 161.422C314.002 161.473 313.942 161.513 313.875 161.538C313.809 161.563 313.738 161.572 313.667 161.566C313.597 161.56 313.528 161.538 313.467 161.502C313.407 161.466 313.354 161.417 313.315 161.358C312.889 160.819 312.357 160.373 311.753 160.046C311.149 159.719 310.484 159.519 309.8 159.458C308.144 159.319 306.479 159.344 304.828 159.531C304.828 159.531 306.802 163.241 313.486 164.054C317.28 164.605 321.148 163.851 324.457 161.915Z" fill="#680E3B"/>
<path d="M343.892 140.603C344.226 140.896 344.433 141.307 344.469 141.749C344.506 142.192 344.37 142.632 344.089 142.976C342.111 145.421 337.178 150.458 331.459 148.373C328.005 147.182 324.826 145.308 322.111 142.863C321.377 142.174 321.954 141.678 322.38 140.766C322.812 139.839 322.907 139.665 323.41 139.305C326.258 137.28 329.72 136.305 333.206 136.548C337.122 136.665 340.884 138.093 343.892 140.603Z" fill="white"/>
<mask id="mask3_144_377" style="mask-type:luminance" maskUnits="userSpaceOnUse" x="321" y="136" width="24" height="13">
<path d="M343.892 140.603C344.226 140.896 344.433 141.307 344.469 141.749C344.506 142.192 344.37 142.632 344.089 142.976C342.111 145.421 337.178 150.458 331.459 148.373C328.005 147.182 324.826 145.308 322.111 142.863C321.937 142.701 321.799 142.504 321.705 142.286C321.611 142.068 321.563 141.833 321.565 141.595C321.567 141.357 321.618 141.123 321.715 140.906C321.812 140.689 321.954 140.495 322.13 140.336C323.628 138.994 325.38 137.967 327.283 137.317C329.186 136.666 331.2 136.404 333.206 136.548C337.122 136.665 340.884 138.093 343.892 140.603Z" fill="white"/>
</mask>
<g mask="url(#mask3_144_377)">
<path d="M322.913 143.067C322.585 144.551 322.71 146.098 323.272 147.509C323.834 148.92 324.807 150.13 326.064 150.981C327.322 151.833 328.806 152.287 330.325 152.286C331.844 152.284 333.327 151.826 334.583 150.971C335.838 150.116 336.808 148.904 337.366 147.491C337.925 146.079 338.046 144.531 337.714 143.049C337.383 141.566 336.614 140.218 335.507 139.178C334.399 138.138 333.006 137.455 331.506 137.216C329.59 136.854 327.61 137.267 325.999 138.364C324.388 139.461 323.278 141.153 322.913 143.067Z" fill="#160C02"/>
</g>
<path d="M321.693 142.258C321.693 142.258 322.844 138.655 328.259 137.028C332.556 136.137 337.027 136.696 340.973 138.618C342.3 139.665 343.796 140.48 345.396 141.026C346.105 141.063 346.806 140.862 347.386 140.453C347.967 140.045 348.394 139.454 348.599 138.774C347.408 138.921 346.199 138.821 345.048 138.479C343.898 138.137 342.83 137.562 341.912 136.789C338.803 134.158 324.69 132.654 321.693 142.258Z" fill="#160C02"/>
<path d="M328.708 129.567C329.034 129.53 330.348 129.423 332.052 129.134C333.458 128.901 334.885 128.82 336.308 128.89C337.509 129.007 338.685 129.304 339.797 129.771C340.709 130.18 341.539 130.751 342.247 131.456L342.455 131.629C343.199 132.065 344.072 132.224 344.922 132.079C345.497 131.953 345.446 131.153 345.197 130.72C344.302 129.197 343.095 127.881 341.654 126.86C340.17 125.952 338.607 125.18 336.984 124.554C335.341 123.928 333.571 123.71 331.825 123.92C331.15 123.914 330.2 123.912 329.408 123.948C329.005 123.967 328.61 124.064 328.244 124.233C327.78 124.462 327.293 124.641 326.791 124.766C324.873 124.49 324.791 126.549 325.006 127.96C325.286 129.809 326.168 129.746 327.369 129.43C327.558 129.395 327.75 129.391 327.94 129.416C328.187 129.506 328.446 129.557 328.708 129.567Z" fill="#160C02"/>
<path d="M348.883 103.597L327.901 102.133C327.901 102.133 294.647 100.044 299.469 160.887C300.529 174.267 311.957 184.531 324.789 181.985L333.251 179.32C333.251 179.32 358.465 181.584 357.98 154.342C357.496 127.099 354.614 109.66 348.883 103.597Z" stroke="#160C02" stroke-width="0.5" stroke-miterlimit="10"/>
<path d="M372.227 203.344C372.227 203.344 364.708 214.68 353.7 213.026C342.692 211.373 341.857 194.122 349.292 172.952C356.727 151.782 351.542 119.389 329.912 107.695C329.912 107.695 309.453 109.511 304.241 119.591C304.241 119.591 304.896 104.852 324.924 100.25C344.953 95.6482 361.544 107.386 361.544 107.386L369.411 145.85L372.227 203.344Z" fill="black" stroke="#160C02" stroke-width="0.5" stroke-miterlimit="10"/>
</svg>
